<svg width="67" height="72" fill="none" xmlns="http://www.w3.org/2000/svg"><path d="M66.54 9.875V8.637a2.43 2.43 0 00-2.428-2.427H40.33V5.055A4.082 4.082 0 0036.253.98h-5.428a4.082 4.082 0 00-4.077 4.076V6.21H2.966A2.43 2.43 0 00.54 8.637v1.239c0 .971.575 1.81 1.402 2.197v37.023A2.428 2.428 0 00.54 51.293v1.238a2.43 2.43 0 002.427 2.427h8.57a1.025 1.025 0 000-2.05h-8.57a.377.377 0 01-.376-.377v-1.238c0-.208.169-.377.377-.377h61.145c.207 0 .376.169.376.377v1.238a.377.377 0 01-.376.377H15.909a1.025 1.025 0 100 2.05h6.205v1.963c0 .98.531 1.836 1.32 2.301l-4.091 10.52a1.025 1.025 0 001.911.743l4.235-10.89h16.1l4.235 10.89a1.026 1.026 0 001.91-.743l-4.116-10.587a2.672 2.672 0 001.209-2.234v-1.963H64.11a2.43 2.43 0 002.428-2.427v-1.238c0-.972-.576-1.81-1.402-2.197V12.072a2.428 2.428 0 001.402-2.198v0zM42.775 56.921a.624.624 0 01-.622.623H24.788a.623.623 0 01-.623-.623v-1.963h18.611v1.963zM28.8 5.055c0-1.117.909-2.026 2.026-2.026h5.428c1.118 0 2.026.91 2.026 2.026V6.21H28.8V5.055zM2.589 8.637c0-.207.17-.376.377-.376h61.146c.207 0 .376.169.376.376v1.239a.377.377 0 01-.376.376h-7.09a1.025 1.025 0 000 2.051h6.064v36.562H3.992V12.303h48.657a1.025 1.025 0 100-2.05H2.966a.377.377 0 01-.376-.378V8.637z" fill="#0952AB" stroke="#fff" stroke-width=".4"/><path d="M30.895 61.163h-2.752c-.61 0-1.146.367-1.366.934l-2.973 7.645a1.025 1.025 0 101.912.743l2.827-7.271h1.767v6.899a1.025 1.025 0 002.05 0v-7.485c0-.807-.657-1.465-1.465-1.465zm9.405.934a1.457 1.457 0 00-1.366-.934h-2.753c-.808 0-1.465.658-1.465 1.466v7.484a1.025 1.025 0 002.05 0v-6.9h1.768l2.827 7.272a1.026 1.026 0 001.911-.743L40.3 62.097zm2.588-37.542h-2.107v-1.576a6.128 6.128 0 00-6.121-6.12H21.952a6.128 6.128 0 00-6.12 6.12v12.744c0 .707.39 1.346 1.02 1.666a1.865 1.865 0 001.949-.153l1.722-1.25h3.537v1.576a6.128 6.128 0 006.12 6.122h14.138l1.721 1.25a1.865 1.865 0 001.95.152 1.863 1.863 0 001.02-1.667V30.676a6.128 6.128 0 00-6.12-6.121v0zm4.07 18.511l-1.705-1.238a1.025 1.025 0 00-.602-.195H30.18a4.075 4.075 0 01-4.07-4.07v-1.576h3.041a1.025 1.025 0 000-2.05H20.19c-.216 0-.427.068-.602.195l-1.705 1.238V22.98a4.075 4.075 0 014.07-4.07H34.66a4.075 4.075 0 014.07 4.07v6.886a4.075 4.075 0 01-4.07 4.07h-1.134a1.025 1.025 0 000 2.051h1.134a6.128 6.128 0 006.12-6.121v-3.26h2.108a4.075 4.075 0 014.07 4.07v12.39h0z" fill="#0952AB" stroke="#fff" stroke-width=".4"/></svg>