<svg width="72" height="72" fill="none" xmlns="http://www.w3.org/2000/svg"><path d="M38.656 23.77a1.166 1.166 0 001.648 0l3.498-3.499a1.166 1.166 0 00-1.648-1.649l-2.674 2.674-.342-.342a1.166 1.166 0 00-1.649 1.65l1.167 1.165zm-30.66-.825h23.321a1.166 1.166 0 000-2.332H7.997a1.166 1.166 0 000 2.332zm30.66 7.821a1.166 1.166 0 001.648 0l3.498-3.498a1.166 1.166 0 00-1.648-1.65l-2.674 2.675-.342-.342A1.166 1.166 0 0037.49 29.6l1.167 1.166zm-30.66-.824h23.321a1.166 1.166 0 000-2.333H7.997a1.166 1.166 0 100 2.332zm30.66 7.82a1.166 1.166 0 001.648 0l3.498-3.498a1.166 1.166 0 00-1.648-1.65L39.48 35.29l-.342-.342a1.166 1.166 0 00-1.649 1.649l1.167 1.166zm-30.66-.824h23.321a1.166 1.166 0 000-2.333H7.997a1.166 1.166 0 100 2.333zm35.806 2.673a1.166 1.166 0 00-1.648 0l-2.674 2.674-.342-.341a1.166 1.166 0 00-1.649 1.648l1.167 1.166a1.166 1.166 0 001.648 0l3.498-3.498a1.166 1.166 0 000-1.649v0zm16.876 9.485l-7.365 10.522-2.516-2.516a1.166 1.166 0 00-1.648 1.65l3.498 3.497c.218.22.515.342.824.342a.953.953 0 00.102 0c.343-.03.656-.21.853-.493l8.163-11.66a1.166 1.166 0 10-1.91-1.337v-.005zm-28.195-6.328c0-.644-.522-1.166-1.166-1.166H7.997a1.166 1.166 0 100 2.332h23.32c.644 0 1.166-.522 1.166-1.166zm-10.612 8.807a1.215 1.215 0 00-2.087 0l-4.664 9.329a1.167 1.167 0 102.087 1.042l1.42-2.853h4.39l1.426 2.853a1.166 1.166 0 102.087-1.042l-4.659-9.329zm-2.077 5.186l1.028-2.057 1.029 2.057h-2.057zm12.691-3.499h-1.166v-1.166a1.166 1.166 0 00-2.333 0v1.166H27.82a1.166 1.166 0 000 2.332h1.166v1.166a1.166 1.166 0 002.332 0v-1.166h1.167a1.166 1.166 0 000-2.332z" fill="#0952AB" stroke="#fff" stroke-width=".68"/><path d="M55.804 40.436a15.119 15.119 0 00-3.498.423V14.783c0-.31-.123-.606-.341-.825L39.138 1.132a1.166 1.166 0 00-.824-.342H4.498A3.498 3.498 0 001 4.288v62.967a3.498 3.498 0 003.498 3.498h44.31a3.498 3.498 0 002.198-.791 15.159 15.159 0 104.798-29.526zM39.48 4.77l8.845 8.846h-7.68a1.166 1.166 0 01-1.165-1.166V4.77zM4.498 68.42a1.166 1.166 0 01-1.166-1.166V4.288c0-.644.522-1.166 1.166-1.166h32.65v9.329a3.498 3.498 0 003.498 3.498h9.328v25.653a15.137 15.137 0 00-2.215 26.82H4.499zm51.306 0c-7.083 0-12.826-5.743-12.826-12.827 0-7.083 5.743-12.826 12.826-12.826 7.084 0 12.827 5.743 12.827 12.826-.008 7.081-5.746 12.819-12.827 12.827z" fill="#0952AB" stroke="#fff" stroke-width=".68"/></svg>