<svg width="68" height="68" fill="none" xmlns="http://www.w3.org/2000/svg"><path d="M65.538 12.137l-30.79-11a2.257 2.257 0 00-1.502 0l-30.781 11a2.2 2.2 0 000 4.14l15.037 5.372v6.859c0 4.277 14.811 4.4 16.5 4.4 1.688 0 16.5-.123 16.5-4.4v-6.859l3.3-1.171v2.53a2.2 2.2 0 002.2 2.2h2.2a2.2 2.2 0 002.2-2.2v-3.3a3.254 3.254 0 00-.359-1.464l5.5-1.967a2.2 2.2 0 000-4.14h-.005zm-17.236 13.95c-4.19-1.907-13.019-1.98-14.3-1.98-1.282 0-10.11.073-14.3 1.98v-9.582c.66-.847 5.847-2.297 14.3-2.297 8.452 0 13.64 1.45 14.3 2.296v9.584zm-14.3 4.62c-8.14 0-13.252-1.344-14.208-2.2.956-.855 6.07-2.2 14.208-2.2 8.137 0 13.251 1.345 14.207 2.2-.956.856-6.067 2.2-14.207 2.2v0zm20.316-12.754l-3.816 1.36v-2.905c0-4.277-14.812-4.4-16.5-4.4-1.689 0-16.5.123-16.5 4.4v2.905l-14.3-5.105 30.815-11 21.985 7.856v5.546a3.307 3.307 0 00-1.684 1.343zm3.884 5.055h-2.2v-3.3a1.1 1.1 0 012.2 0v3.3zm0-6.442V11.85l6.6 2.358-6.6 2.358zM63.7 35.108c-.066 0-.132.006-.197.018A184.178 184.178 0 0134 37.308a184.178 184.178 0 01-29.503-2.182 1.238 1.238 0 00-.197-.018c-.77 0-3.3.872-3.3 12.1s2.53 12.1 3.3 12.1a1.25 1.25 0 00.197-.02 172.04 172.04 0 0122.66-2.066l-2.147 5.15a2.191 2.191 0 002.907 2.824l.841-.36.365.838a2.188 2.188 0 002.022 1.334h.028a2.192 2.192 0 002.016-1.373l1.911-4.574 1.904 4.557a2.2 2.2 0 002.023 1.39h.033a2.184 2.184 0 002.015-1.32l.368-.844.828.356a2.192 2.192 0 002.914-2.837l-2.106-5.05c6.844.243 13.667.904 20.43 1.98.063.011.127.016.191.015.77 0 3.3-.872 3.3-12.1s-2.53-12.1-3.3-12.1v0zm-26.18 4.367a23.14 23.14 0 01.793 5.145 7.633 7.633 0 00-7.657.711 29.72 29.72 0 00-.756-5.865 195.93 195.93 0 007.62.009v0zM35.1 57.108a5.5 5.5 0 115.5-5.5 5.506 5.506 0 01-5.5 5.5v0zM4.3 37.858a30.852 30.852 0 011.1 9.35 30.852 30.852 0 01-1.1 9.35 30.852 30.852 0 01-1.1-9.35 30.852 30.852 0 011.1-9.35zm2.222 18.887C7.124 55 7.6 52.08 7.6 47.208c0-4.873-.476-7.792-1.08-9.54a192.988 192.988 0 0021.082 1.742c.66 2.545.962 5.17.898 7.798 0 .16 0 .311-.007.464a7.62 7.62 0 00-.354 7.207l-.048.117a191.59 191.59 0 00-21.569 1.751v-.002zm24.626 8.063l-.803-1.848a1.1 1.1 0 00-1.442-.572l-1.852.818 2.58-6.184a7.692 7.692 0 003.885 2.123l-2.368 5.663zm10.15-2.42a1.1 1.1 0 00-1.443.572l-.814 1.83-2.358-5.647a7.7 7.7 0 003.888-2.124l2.574 6.16-1.848-.791zm22.182-5.335a178.134 178.134 0 00-21.34-1.98l-.078-.19a7.655 7.655 0 00-1.483-8.674 30.615 30.615 0 00-.785-6.777c7.932-.178 15.844-.87 23.686-2.07.51.867 1.32 4.295 1.32 9.846 0 5.55-.815 8.978-1.32 9.845v0z" fill="#0952AB" stroke="#fff" stroke-width=".5"/></svg>