<svg width="1290" height="414" fill="none" xmlns="http://www.w3.org/2000/svg"><g opacity=".8" fill="#B2BCCA" fill-opacity=".2" clip-path="url(#clip0)"><path opacity=".8" d="M-459.787-171.239c.2-5.3 2-10.5 5.1-14.9l494.3-707c4.3-6.2 10.8-10.3 18.3-11.7 7.5-1.3 15 .3 21.2 4.6l709 493.2c8 5.6 12.5 14.7 12.1 24.5-.2 5.3-2 10.5-5.1 14.9l-494.3 706.999c-4.3 6.2-10.8 10.301-18.3 11.701-7.5 1.3-15-.301-21.2-4.601l-708.9-493.199c-8-5.6-12.6-14.7-12.2-24.5zm1257.7-211.4c.4-9-3.8-17.4-11.1-22.5l-709-493.2c-5.7-4-12.6-5.5-19.5-4.3-6.9 1.2-12.8 5-16.8 10.7l-494.3 707c-2.8 4.1-4.4 8.8-4.7 13.7-.4 9 3.8 17.4 11.1 22.5l709 493.199c5.7 4 12.6 5.5 19.5 4.3 6.9-1.2 12.8-4.999 16.8-10.699l494.3-707c2.9-4 4.5-8.8 4.7-13.7z"/><path opacity=".8" d="M-463.488-198.539c.2-5.3 2-10.5 5.2-14.8l490.6-683c4.3-6 10.7-10 18-11.2 7.3-1.2 14.6.5 20.6 4.8l684.9 489.4c7.6 5.5 11.9 14.3 11.5 23.7-.2 5.3-2 10.5-5.2 14.8l-490.6 683c-8.9 12.4-26.2 15.2-38.6 6.4l-684.9-489.5c-7.6-5.4-11.9-14.2-11.5-23.6zm1228.5-191.2c.4-8.6-3.6-16.7-10.6-21.7l-684.9-489.5c-5.5-3.9-12.2-5.5-18.9-4.4-6.7 1.1-12.6 4.7-16.5 10.2l-490.6 683c-2.9 4-4.5 8.7-4.7 13.6-.4 8.6 3.6 16.7 10.6 21.7l684.9 489.4c11.4 8.1 27.3 5.5 35.4-5.8l490.6-683c2.9-3.9 4.5-8.6 4.7-13.5z"/><path opacity=".8" d="M-467.288-225.94c.2-5.3 2-10.4 5.2-14.8l486.9-659c8.8-11.9 25.8-14.5 37.7-5.7l660.9 485.7c7.3 5.3 11.4 13.9 11 22.9-.2 5.3-2 10.4-5.2 14.8l-486.9 659c-4.3 5.8-10.6 9.6-17.7 10.6-7.1 1.1-14.2-.7-20.1-4.9l-660.9-485.7c-7.2-5.3-11.3-13.9-10.9-22.9zm1199.4-171c.4-8.2-3.4-16.1-10-20.9l-660.9-485.7c-11-8.1-26.5-5.7-34.6 5.2l-486.9 659c-2.9 4-4.6 8.6-4.8 13.5-.4 8.2 3.4 16.1 10 20.9l660.9 485.7c5.3 3.9 11.8 5.5 18.4 4.5 6.5-1 12.3-4.4 16.2-9.7l486.9-659c2.9-3.9 4.6-8.6 4.8-13.5z"/><path opacity=".8" d="M-471.087-253.24c.2-5.3 2.1-10.4 5.3-14.7l483.1-634.999c4.2-5.6 10.4-9.2 17.4-10.1 7-1 13.9.9 19.5 5.1l636.8 481.999c6.9 5.2 10.8 13.501 10.4 22.101-.2 5.3-2.1 10.399-5.3 14.699l-483.1 635c-8.8 11.5-25.3 13.8-36.9 5l-636.8-482c-6.9-5.3-10.8-13.5-10.4-22.1zm1170.3-150.799c.3-7.9-3.2-15.401-9.5-20.201l-636.8-481.999c-5.1-3.9-11.4-5.5-17.8-4.7-6.4.9-12 4.2-15.9 9.3l-483.2 635.1c-3 3.9-4.7 8.499-4.9 13.399-.3 7.9 3.2 15.4 9.5 20.2l636.8 482.001c10.6 8 25.7 5.899 33.7-4.601l483.1-634.999c3.1-4 4.7-8.6 5-13.5z"/><path opacity=".8" d="M-474.888-280.64c.2-5.3 2.1-10.4 5.4-14.6l479.4-611c4.2-5.4 10.3-8.8 17.1-9.6 6.8-.8 13.5 1 18.9 5.2l612.8 478.3c6.5 5.1 10.2 13 9.8 21.3-.2 5.3-2.1 10.4-5.4 14.6l-479.4 611.001c-4.2 5.4-10.3 8.8-17.1 9.6-6.8.8-13.5-1.001-18.9-5.201l-612.8-478.3c-6.5-5.1-10.2-13-9.8-21.3zm1141.1-130.5c.3-7.5-2.999-14.8-8.9-19.4l-612.8-478.3c-4.9-3.8-11-5.5-17.2-4.8-6.2.8-11.7 3.9-15.6 8.8l-479.4 611c-3 3.8-4.7 8.5-4.9 13.3-.3 7.5 3 14.8 8.9 19.4l612.8 478.301c4.9 3.8 11 5.499 17.2 4.799 6.2-.8 11.7-3.899 15.6-8.799l479.4-611.001c3-3.8 4.7-8.4 4.9-13.3z"/><path opacity=".8" d="M-478.688-307.94c.2-5.3 2.1-10.4 5.5-14.5l475.7-586.999c8.7-10.7 24.4-12.3 35.1-3.7l588.7 474.6c6.1 4.9 9.6 12.6 9.3 20.5a24.62 24.62 0 01-5.5 14.599l-475.7 587.001c-4.2 5.2-10.2 8.4-16.8 9.1-6.6.7-13.1-1.201-18.3-5.401l-588.8-474.7c-6.1-5-9.6-12.6-9.2-20.5zm1112-110.3c.3-7.2-2.8-14.099-8.4-18.599l-588.7-474.6c-9.7-7.8-24.1-6.3-31.9 3.4l-475.7 587c-3.1 3.8-4.8 8.4-5 13.2-.3 7.2 2.8 14.099 8.4 18.599l588.7 474.6c4.7 3.8 10.6 5.5 16.7 4.9 6-.6 11.5-3.6 15.3-8.3l475.7-586.999c3-3.8 4.7-8.401 4.9-13.201z"/><path opacity=".8" d="M-482.488-335.339c.2-5.3 2.2-10.4 5.6-14.5l472-563c4.2-5 10-8 16.5-8.6 6.5-.6 12.8 1.4 17.8 5.6l564.6 470.8c5.9 4.9 9 12.1 8.7 19.7-.2 5.4-2.2 10.4-5.6 14.5l-472 563c-8.6 10.3-24 11.6-34.2 3l-564.7-470.801c-5.9-4.9-9.1-11.999-8.7-19.699zm1082.9-90.1c.3-6.9-2.6-13.4-7.9-17.8l-564.6-470.9c-4.5-3.8-10.2-5.6-16.1-5-5.9.5-11.2 3.3-15 7.8l-472 563c-3.1 3.7-4.9 8.299-5.1 13.099-.3 6.9 2.6 13.4 7.9 17.8l564.6 470.9c9.3 7.8 23.3 6.501 31-2.799l472-563c3.2-3.7 5-8.2 5.2-13.1z"/><path opacity=".8" d="M-486.288-362.639c.2-5.4 2.2-10.3 5.8-14.4l468.3-539c4.1-4.8 9.9-7.6 16.2-8.1 6.3-.4 12.4 1.6 17.2 5.7l540.6 467.1c5.5 4.8 8.5 11.6 8.1 18.9-.2 5.4-2.2 10.3-5.8 14.4l-468.3 539c-4.1 4.8-9.9 7.6-16.2 8.1-6.3.4-12.4-1.6-17.2-5.7l-540.6-467.1c-5.5-4.8-8.5-11.7-8.1-18.9zm1053.8-69.9c.3-6.6-2.4-12.8-7.4-17.1l-540.5-467.1c-4.3-3.7-9.8-5.6-15.5-5.2-5.7.4-10.9 3-14.6 7.3l-468.3 539c-3.2 3.7-5 8.2-5.2 13-.3 6.6 2.4 12.8 7.4 17.1l540.6 467.1c4.3 3.7 9.8 5.6 15.5 5.2 5.7-.4 10.9-3 14.6-7.3l468.3-539c3.1-3.7 4.9-8.2 5.1-13z"/><path opacity=".8" d="M-490.187-390.04c.2-5.3 2.3-10.4 5.9-14.3l464.5-515c4.1-4.6 9.8-7.2 15.9-7.6 6.1-.3 12 1.8 16.6 5.9l516.5 463.4c5.1 4.6 7.9 11.2 7.6 18.1-.2 5.3-2.3 10.4-5.9 14.3l-464.5 515c-4.1 4.6-9.8 7.2-15.9 7.6-6.1.3-12-1.8-16.6-5.9l-516.5-463.4c-5.1-4.6-7.9-11.2-7.6-18.1zm1024.8-49.6c.3-6.2-2.2-12.1-6.9-16.3l-516.5-463.5c-4.1-3.7-9.4-5.6-15-5.3-5.5.3-10.6 2.7-14.3 6.8l-464.5 515c-3.2 3.6-5.1 8.1-5.3 12.9-.3 6.2 2.2 12.1 6.9 16.3l516.5 463.4c4.1 3.7 9.4 5.6 15 5.3 5.5-.3 10.6-2.7 14.3-6.8l464.5-515c3.2-3.5 5.1-8.1 5.3-12.8z"/><path opacity=".8" d="M-493.987-417.339c.2-5.3 2.4-10.4 6-14.3l460.8-491c4.1-4.4 9.6-6.9 15.6-7.1 6-.2 11.7 1.9 16 6l492.5 459.7c4.8 4.5 7.3 10.8 7.1 17.3-.2 5.3-2.4 10.4-6 14.3l-460.8 491c-8.4 9-22.6 9.4-31.6 1l-492.5-459.6c-4.8-4.5-7.4-10.8-7.1-17.3zm995.7-29.5c.3-5.9-2.1-11.5-6.4-15.5l-492.4-459.7c-3.9-3.7-9-5.6-14.4-5.4-5.4.2-10.3 2.4-14 6.3l-460.8 491c-3.3 3.5-5.2 8-5.4 12.8-.3 5.9 2.1 11.5 6.3 15.5l492.5 459.7c8.1 7.6 20.8 7.1 28.4-.9l460.8-491c3.3-3.5 5.2-8 5.4-12.8z"/><path opacity=".8" d="M-497.787-444.74c.2-5.3 2.4-10.4 6.2-14.2l457.1-467c8.4-8.6 22.2-8.7 30.8-.4l468.4 456c4.4 4.3 6.8 10.3 6.5 16.5-.2 5.3-2.4 10.4-6.2 14.2l-457.1 467c-8.4 8.6-22.2 8.7-30.8.4l-468.4-456c-4.4-4.3-6.8-10.3-6.5-16.5zm966.6-9.2c.2-5.5-1.9-10.9-5.9-14.8l-468.3-456c-7.7-7.5-20-7.3-27.6.3l-457.1 467c-3.3 3.4-5.3 7.9-5.5 12.7-.2 5.5 1.9 10.9 5.9 14.8l468.4 456c7.7 7.5 20 7.3 27.5-.3l457.1-467c3.4-3.4 5.3-7.9 5.5-12.7z"/><path opacity=".8" d="M-501.688-472.039c.2-5.4 2.5-10.4 6.3-14.1l453.4-443.1c8.3-8.1 21.7-8 29.9.3l444.3 452.3c4.1 4.2 6.3 9.9 6 15.7-.2 5.4-2.5 10.4-6.3 14.1l-453.4 443c-8.3 8.1-21.7 8-29.9-.3l-444.3-452.3c-4-4.1-6.2-9.8-6-15.6zm937.7 11c.2-5.2-1.7-10.3-5.4-14l-444.3-452.3c-7.3-7.4-19.2-7.5-26.7-.3l-453.4 443.1c-3.4 3.4-5.4 7.8-5.6 12.6-.2 5.2 1.7 10.3 5.4 14l444.3 452.3c7.3 7.4 19.2 7.5 26.7.3l453.4-443c3.4-3.5 5.4-8 5.6-12.7z"/></g><defs><clipPath id="clip0"><path fill="#fff" transform="translate(0 .262)" d="M0 0h1290v413H0z"/></clipPath></defs></svg>