<svg width="25" height="25" fill="none" xmlns="http://www.w3.org/2000/svg"><path d="M12.512 10.36a2.14 2.14 0 002.14-2.16A2.144 2.144 0 0012.5 6.05a2.148 2.148 0 00-2.156 2.177 2.145 2.145 0 002.168 2.133z" fill="#fff"/><path d="M12.5 0C5.596 0 0 5.597 0 12.5S5.596 25 12.5 25 25 19.403 25 12.5 19.404 0 12.5 0zm.018 3.801c2.435.007 4.389 1.998 4.376 4.46-.012 2.405-1.998 4.354-4.429 4.346-2.406-.008-4.379-2.003-4.364-4.413a4.41 4.41 0 014.417-4.393zm4.931 10.536c-.538.553-1.186.953-1.906 1.232-.68.263-1.426.396-2.164.484.112.122.165.181.234.25 1.002 1.008 2.008 2.01 3.006 3.02.34.343.411.77.224 1.17-.204.437-.663.725-1.113.694-.285-.02-.507-.161-.704-.36-.756-.76-1.527-1.508-2.267-2.283-.216-.225-.32-.182-.51.014-.76.783-1.533 1.553-2.31 2.32-.35.344-.765.406-1.17.21-.43-.209-.704-.648-.683-1.09.015-.299.162-.527.367-.732.992-.989 1.98-1.982 2.969-2.973.066-.066.126-.136.222-.238-1.349-.141-2.565-.473-3.606-1.287-.13-.102-.263-.2-.38-.313-.456-.437-.502-.939-.142-1.455.309-.442.826-.56 1.365-.306.104.049.203.11.299.176 1.94 1.333 4.605 1.37 6.553.06.193-.148.4-.269.638-.33.465-.12.899.051 1.148.458.285.465.282.918-.07 1.279z" fill="#fff"/></svg>