<svg width="15" height="14" fill="none" xmlns="http://www.w3.org/2000/svg"><path d="M8.69 2.327l1.28 1.4h2.835v8.4h-11.2v-8.4H4.44l1.281-1.4H8.69zm.615-1.4h-4.2l-1.28 1.4h-2.22c-.77 0-1.4.63-1.4 1.4v8.4c0 .77.63 1.4 1.4 1.4h11.2c.77 0 1.4-.63 1.4-1.4v-8.4c0-.77-.63-1.4-1.4-1.4h-2.219l-1.28-1.4zm-2.1 4.9c1.155 0 2.1.945 2.1 2.1 0 1.155-.945 2.1-2.1 2.1-1.155 0-2.1-.945-2.1-2.1 0-1.155.945-2.1 2.1-2.1zm0-1.4a3.501 3.501 0 00-3.5 3.5c0 1.932 1.568 3.5 3.5 3.5s3.5-1.568 3.5-3.5-1.568-3.5-3.5-3.5z" fill="#B2BCCA"/></svg>