<svg width="15" height="17" fill="none" xmlns="http://www.w3.org/2000/svg"><path d="M8.251 5.481c.597 0 1.169.252 1.591.7a2.46 2.46 0 01.659 1.687.82.82 0 00.22.562.73.73 0 00.53.233c.199 0 .39-.084.53-.233a.82.82 0 00.22-.562 4.102 4.102 0 00-1.098-2.813A3.645 3.645 0 008.25 3.891a.729.729 0 00-.53.233.82.82 0 00-.22.562c0 .211.079.413.22.562.14.15.331.233.53.233z" fill="#000"/><path d="M8.251 2.3c1.392 0 2.728.586 3.712 1.63.985 1.045 1.538 2.461 1.538 3.938a.82.82 0 00.22.562.73.73 0 00.53.233c.199 0 .39-.084.53-.233a.82.82 0 00.22-.562c0-1.899-.711-3.72-1.977-5.062C11.758 1.463 10.04.709 8.25.709a.729.729 0 00-.53.233.82.82 0 00-.22.562.82.82 0 00.22.563c.14.149.331.233.53.233zm6.563 9.473a.801.801 0 00-.207-.332.736.736 0 00-.333-.185l-4.5-1.09a.709.709 0 00-.37.01.741.741 0 00-.32.197c-.106.104-.113.112-.6 1.098C6.865 10.68 5.57 9.3 4.83 7.58c.952-.509.96-.509 1.057-.628a.808.808 0 00.186-.34.842.842 0 00.01-.392L5.055 1.504a.813.813 0 00-.174-.353.748.748 0 00-.314-.22 2.71 2.71 0 00-.54-.142 2.796 2.796 0 00-.577-.08c-.915 0-1.793.385-2.44 1.072A3.774 3.774 0 000 4.368c.004 3.247 1.222 6.36 3.387 8.657 2.165 2.296 5.1 3.588 8.163 3.592a3.28 3.28 0 001.32-.278 3.444 3.444 0 001.12-.793c.32-.34.574-.744.747-1.188.174-.443.263-.92.263-1.4a3.62 3.62 0 00-.188-1.185zm-3.263 3.253c-2.665-.002-5.22-1.125-7.104-3.124C2.562 9.904 1.503 7.194 1.5 4.368a2.141 2.141 0 01.573-1.46c.366-.388.86-.606 1.377-.608h.247L4.5 5.99l-.405.223c-.645.358-1.155.645-.885 1.265a9.522 9.522 0 002.083 3.512 8.84 8.84 0 003.302 2.223c.63.27.877-.23 1.215-.923l.217-.437 3.473.843v.262a2.141 2.141 0 01-.573 1.46c-.366.388-.86.606-1.377.608z" fill="#000"/></svg>