<svg width="20" height="21" fill="none" xmlns="http://www.w3.org/2000/svg"><path d="M3.354.627v.977c8.64 0 15.669 7.03 15.669 15.668H20C20 8.094 12.533.627 3.354.627z" fill="#0952AB"/><path d="M3.354 5.057v.977c6.197 0 11.239 5.041 11.239 11.238h.977c0-6.735-5.48-12.215-12.216-12.215z" fill="#0952AB"/><path d="M3.354 9.487v.977a6.816 6.816 0 016.808 6.809h.978c0-4.293-3.493-7.786-7.786-7.786zm.001 4.431A3.359 3.359 0 000 17.271a3.358 3.358 0 003.355 3.355 3.358 3.358 0 003.354-3.355 3.359 3.359 0 00-3.354-3.354zm0 5.732a2.38 2.38 0 01-2.378-2.378 2.38 2.38 0 012.378-2.377 2.38 2.38 0 012.377 2.377 2.38 2.38 0 01-2.377 2.378z" fill="#0952AB"/></svg>