<svg width="1290" height="256" fill="none" xmlns="http://www.w3.org/2000/svg"><g opacity=".8" fill="#B2BCCA" fill-opacity=".2" clip-path="url(#clip0)"><path opacity=".8" d="M272.213-115.074c.2-3.593 2-7.118 5.1-10.1l494.3-479.236c4.3-4.203 10.8-6.982 18.3-7.931 7.5-.881 15 .203 21.2 3.118L1520.11-274.91c8 3.796 12.5 9.964 12.1 16.607-.2 3.593-2 7.118-5.1 10.1l-494.3 479.236c-4.3 4.203-10.8 6.982-18.3 7.931-7.5.881-14.997-.204-21.197-3.118l-708.9-334.313c-8-3.796-12.6-9.964-12.2-16.607zM1529.91-258.371c.4-6.1-3.8-11.794-11.1-15.251L809.813-607.935c-5.7-2.711-12.6-3.728-19.5-2.915-6.9.814-12.8 3.39-16.8 7.253l-494.3 479.236c-2.8 2.779-4.4 5.965-4.7 9.287-.4 6.1 3.8 11.794 11.1 15.251l709 334.313c5.697 2.711 12.597 3.728 19.497 2.915 6.9-.814 12.8-3.389 16.8-7.253l494.3-479.236c2.9-2.711 4.5-5.965 4.7-9.287z"/><path opacity=".8" d="M268.512-133.579c.2-3.593 2-7.118 5.2-10.032l490.6-462.968c4.3-4.067 10.7-6.779 18-7.592 7.3-.813 14.6.339 20.6 3.254L1487.81-279.18c7.6 3.728 11.9 9.693 11.5 16.065-.2 3.592-2 7.117-5.2 10.032l-490.6 462.967c-8.898 8.406-26.198 10.304-38.598 4.339l-684.9-331.805c-7.6-3.661-11.9-9.626-11.5-15.997zM1497.01-263.183c.4-5.83-3.6-11.32-10.6-14.709L801.512-609.697c-5.5-2.644-12.2-3.728-18.9-2.983-6.7.746-12.6 3.186-16.5 6.914l-490.6 462.968c-2.9 2.711-4.5 5.897-4.7 9.219-.4 5.829 3.6 11.32 10.6 14.709l684.9 331.737c11.4 5.49 27.3 3.728 35.398-3.932l490.6-462.967c2.9-2.644 4.5-5.83 4.7-9.151z"/><path opacity=".8" d="M264.712-152.152c.2-3.593 2-7.05 5.2-10.032l486.9-446.7c8.8-8.066 25.8-9.829 37.7-3.864l660.898 329.229c7.3 3.593 11.4 9.422 11 15.523-.2 3.593-2 7.05-5.2 10.032L974.312 188.735c-4.3 3.932-10.6 6.508-17.7 7.186-7.1.745-14.2-.475-20.1-3.322l-660.9-329.229c-7.2-3.592-11.3-9.422-10.9-15.522zM1464.11-268.064c.4-5.558-3.4-10.913-10-14.167L793.212-611.46c-11-5.49-26.5-3.863-34.6 3.525l-486.9 446.7c-2.9 2.711-4.6 5.829-4.8 9.15-.4 5.559 3.4 10.914 10 14.167l660.9 329.229c5.3 2.644 11.8 3.728 18.4 3.051 6.5-.678 12.3-2.983 16.2-6.575l486.898-446.7c2.9-2.643 4.6-5.829 4.8-9.151z"/><path opacity=".8" d="M260.913-170.658c.2-3.592 2.1-7.049 5.3-9.964l483.1-430.431c4.2-3.796 10.4-6.236 17.4-6.846 7-.678 13.9.61 19.5 3.457l636.797 326.721c6.9 3.525 10.8 9.151 10.4 14.98-.2 3.593-2.1 7.05-5.3 9.964L945.013 167.655c-8.8 7.795-25.3 9.354-36.9 3.389l-636.8-326.721c-6.9-3.593-10.8-9.151-10.4-14.981zM1431.21-272.876c.3-5.355-3.2-10.439-9.5-13.693L784.913-613.29c-5.1-2.643-11.4-3.728-17.8-3.186-6.4.61-12 2.847-15.9 6.304l-483.2 430.499c-3 2.644-4.7 5.762-4.9 9.083-.3 5.355 3.2 10.439 9.5 13.693l636.8 326.721c10.6 5.422 25.7 3.999 33.7-3.118l483.097-430.432c3.1-2.711 4.7-5.829 5-9.15z"/><path opacity=".8" d="M257.112-189.23c.2-3.593 2.1-7.05 5.4-9.897l479.4-414.163c4.2-3.66 10.3-5.965 17.1-6.507 6.8-.542 13.5.678 18.9 3.525l612.798 324.213c6.5 3.457 10.2 8.812 9.8 14.438-.2 3.592-2.1 7.049-5.4 9.896L915.712 146.438c-4.2 3.661-10.3 5.965-17.1 6.507-6.8.543-13.5-.677-18.9-3.524l-612.8-324.213c-6.5-3.457-10.2-8.812-9.8-14.438zm1141.098-88.459c.3-5.084-3-10.032-8.9-13.15L776.512-615.052c-4.9-2.576-11-3.728-17.2-3.254-6.2.542-11.7 2.644-15.6 5.965l-479.4 414.163c-3 2.576-4.7 5.762-4.9 9.015-.3 5.084 3 10.032 8.9 13.15l612.8 324.214c4.9 2.575 11 3.728 17.2 3.253 6.2-.542 11.7-2.643 15.6-5.965l479.398-414.163c3-2.576 4.7-5.694 4.9-9.015z"/><path opacity=".8" d="M253.312-207.735c.2-3.593 2.1-7.05 5.5-9.829l475.7-397.895c8.7-7.253 24.4-8.337 35.1-2.508l588.698 321.705c6.1 3.322 9.6 8.541 9.3 13.896-.2 3.593-2.1 7.05-5.5 9.896L886.412 125.425c-4.2 3.525-10.2 5.694-16.8 6.168-6.6.475-13.1-.813-18.3-3.66l-588.8-321.773c-6.1-3.389-9.6-8.54-9.2-13.895zm1111.998-74.767c.3-4.88-2.8-9.557-8.4-12.608L768.212-616.814c-9.7-5.288-24.1-4.271-31.9 2.304l-475.7 397.895c-3.1 2.576-4.8 5.694-5 8.947-.3 4.881 2.8 9.558 8.4 12.608l588.7 321.705c4.7 2.576 10.6 3.728 16.7 3.322 6-.407 11.5-2.441 15.3-5.626l475.698-397.895c3-2.576 4.7-5.694 4.9-8.948z"/><path opacity=".8" d="M249.512-226.309c.2-3.592 2.2-7.049 5.6-9.828l472-381.627c4.2-3.389 10-5.423 16.5-5.829 6.5-.407 12.8.949 17.8 3.796l564.598 319.129c5.9 3.321 9 8.202 8.7 13.353-.2 3.661-2.2 7.05-5.6 9.829L857.112 104.14c-8.6 6.982-24 7.863-34.2 2.034l-564.7-319.129c-5.9-3.322-9.1-8.134-8.7-13.354zm1082.898-61.073c.3-4.678-2.6-9.084-7.9-12.066L759.912-618.645c-4.5-2.576-10.2-3.796-16.1-3.389-5.9.339-11.2 2.237-15 5.287l-472 381.626c-3.1 2.508-4.9 5.626-5.1 8.88-.3 4.677 2.6 9.083 7.9 12.066l564.6 319.197c9.3 5.287 23.3 4.406 31-1.898l471.998-381.627c3.2-2.508 5-5.558 5.2-8.879z"/><path opacity=".8" d="M245.712-244.814c.2-3.66 2.2-6.982 5.8-9.761l468.3-365.358c4.1-3.254 9.9-5.152 16.2-5.491 6.3-.271 12.4 1.085 17.2 3.864l540.598 316.621c5.5 3.254 8.5 7.863 8.1 12.812-.2 3.66-2.2 6.981-5.8 9.761L827.812 82.992c-4.1 3.253-9.9 5.151-16.2 5.49-6.3.271-12.4-1.084-17.2-3.864l-540.6-316.621c-5.5-3.253-8.5-7.93-8.1-12.811zm1053.798-47.381c.3-4.474-2.4-8.677-7.4-11.591L751.612-620.407c-4.3-2.508-9.8-3.796-15.5-3.525-5.7.271-10.9 2.033-14.6 4.948l-468.3 365.358c-3.2 2.508-5 5.558-5.2 8.812-.3 4.474 2.4 8.677 7.4 11.591l540.6 316.621c4.3 2.508 9.8 3.796 15.5 3.525 5.7-.271 10.9-2.033 14.6-4.948l468.298-365.358c3.1-2.508 4.9-5.559 5.1-8.812z"/><path opacity=".8" d="M241.813-263.387c.2-3.592 2.3-7.049 5.9-9.693l464.5-349.09c4.1-3.118 9.8-4.88 15.9-5.151 6.1-.204 12 1.22 16.6 3.999l516.497 314.113c5.1 3.118 7.9 7.592 7.6 12.269-.2 3.593-2.3 7.05-5.9 9.693L798.413 61.843c-4.1 3.118-9.8 4.88-15.9 5.152-6.1.203-12-1.22-16.6-4l-516.5-314.113c-5.1-3.118-7.9-7.591-7.6-12.269zm1024.797-33.621c.3-4.202-2.2-8.202-6.9-11.049l-516.497-314.18c-4.1-2.508-9.4-3.796-15-3.593-5.5.203-10.6 1.83-14.3 4.609l-464.5 349.09c-3.2 2.44-5.1 5.491-5.3 8.744-.3 4.203 2.2 8.202 6.9 11.049l516.5 314.113c4.1 2.508 9.4 3.796 15 3.593 5.5-.203 10.6-1.83 14.3-4.61L1261.31-288.33c3.2-2.373 5.1-5.491 5.3-8.677z"/><path opacity=".8" d="M238.013-281.892c.2-3.592 2.4-7.049 6-9.693l460.8-332.821c4.1-2.983 9.6-4.678 15.6-4.813 6-.136 11.7 1.288 16 4.067l492.497 311.605c4.8 3.05 7.3 7.321 7.1 11.727-.2 3.592-2.4 7.049-6 9.693L769.213 40.694c-8.4 6.101-22.6 6.372-31.6.678l-492.5-311.537c-4.8-3.05-7.4-7.321-7.1-11.727zm995.697-19.996c.3-3.999-2.1-7.795-6.4-10.507L734.913-624c-3.9-2.508-9-3.796-14.4-3.66-5.4.135-10.3 1.627-14 4.27l-460.8 332.822c-3.3 2.372-5.2 5.423-5.4 8.676-.3 4 2.1 7.795 6.3 10.507l492.5 311.605c8.1 5.151 20.8 4.813 28.4-.61l460.797-332.822c3.3-2.372 5.2-5.422 5.4-8.676z"/><path opacity=".8" d="M234.213-300.465c.2-3.592 2.4-7.049 6.2-9.625l457.1-316.553c8.4-5.83 22.2-5.898 30.8-.271l468.397 309.097c4.4 2.914 6.8 6.981 6.5 11.184-.2 3.593-2.4 7.05-6.2 9.625L739.913 19.546c-8.4 5.83-22.2 5.897-30.8.27l-468.4-309.096c-4.4-2.915-6.8-6.982-6.5-11.185zm966.597-6.236c.2-3.728-1.9-7.388-5.9-10.032L726.613-625.83c-7.7-5.084-20-4.948-27.6.203l-457.1 316.554c-3.3 2.304-5.3 5.355-5.5 8.608-.2 3.729 1.9 7.389 5.9 10.032l468.4 309.097c7.7 5.084 20 4.949 27.5-.203l457.097-316.553c3.4-2.305 5.3-5.355 5.5-8.609z"/><path opacity=".8" d="M230.312-318.97c.2-3.66 2.5-7.05 6.3-9.558l453.4-300.353c8.3-5.49 21.7-5.422 29.9.204l444.298 306.589c4.1 2.847 6.3 6.71 6 10.642-.2 3.66-2.5 7.05-6.3 9.558L710.512-1.603c-8.3 5.49-21.7 5.422-29.9-.204l-444.3-306.589c-4-2.779-6.2-6.643-6-10.574zm937.698 7.456c.2-3.525-1.7-6.982-5.4-9.49L718.312-627.593c-7.3-5.016-19.2-5.083-26.7-.203l-453.4 300.353c-3.4 2.305-5.4 5.287-5.6 8.541-.2 3.524 1.7 6.981 5.4 9.489l444.3 306.59c7.3 5.016 19.2 5.083 26.7.203l453.398-300.285c3.4-2.373 5.4-5.423 5.6-8.609z"/></g><defs><clipPath id="clip0"><path fill="#fff" transform="translate(0 .262)" d="M0 0h1290v255H0z"/></clipPath></defs></svg>