<svg width="25" height="25" fill="none" xmlns="http://www.w3.org/2000/svg"><path d="M12.5 0C5.597 0 0 5.596 0 12.5S5.597 25 12.5 25 25 19.404 25 12.5 19.403 0 12.5 0zm6.34 13.852c.583.569 1.2 1.104 1.723 1.732.231.278.45.565.616.888.237.461.023.966-.39.993h-2.56c-.662.055-1.188-.212-1.632-.664-.354-.36-.682-.745-1.024-1.118a2.394 2.394 0 00-.46-.41c-.35-.227-.653-.158-.853.207-.204.37-.25.782-.27 1.195-.028.604-.21.762-.816.79-1.294.06-2.523-.136-3.665-.788-1.007-.576-1.786-1.388-2.466-2.309-1.322-1.793-2.335-3.761-3.246-5.786-.204-.456-.055-.7.449-.71a71.264 71.264 0 012.507 0c.34.005.565.2.696.52a15.558 15.558 0 001.7 3.15c.184.261.373.521.642.706.296.203.522.136.662-.195.09-.21.128-.436.148-.661.066-.773.074-1.545-.04-2.315-.072-.481-.343-.792-.823-.883-.245-.047-.21-.137-.09-.277.206-.241.4-.39.786-.39l2.893-.001c.456.09.559.294.62.753l.003 3.216c-.005.177.09.704.409.82.255.085.424-.12.577-.282.694-.736 1.188-1.605 1.631-2.505.195-.397.364-.807.528-1.218.121-.304.31-.454.654-.449l2.786.003c.082 0 .166.001.247.015.47.08.598.283.453.74-.229.72-.673 1.32-1.107 1.92-.466.644-.962 1.265-1.423 1.912-.424.59-.39.888.136 1.4z" fill="#7dc6ef"/></svg>